/* XPM */
static char * tagtool_xpm[] = {
"32 32 189 2",
"  	c None",
". 	c #000000",
"+ 	c #59463D",
"@ 	c #857062",
"# 	c #6F5142",
"$ 	c #40291B",
"% 	c #2C2424",
"& 	c #634C42",
"* 	c #3D322D",
"= 	c #55453A",
"- 	c #4C433B",
"; 	c #0C0B09",
"> 	c #656565",
", 	c #949393",
"' 	c #8D8D8D",
") 	c #3A3B3B",
"! 	c #131313",
"~ 	c #0B0606",
"{ 	c #543B34",
"] 	c #241916",
"^ 	c #5B4740",
"/ 	c #221D1B",
"( 	c #242322",
"_ 	c #6D6D6D",
": 	c #9C9C9C",
"< 	c #ADADAD",
"[ 	c #7B7B7B",
"} 	c #4D4D4D",
"| 	c #433831",
"1 	c #655248",
"2 	c #715E4F",
"3 	c #3D3123",
"4 	c #858585",
"5 	c #C7C7C7",
"6 	c #B3B3B3",
"7 	c #444443",
"8 	c #42332C",
"9 	c #554D45",
"0 	c #272115",
"a 	c #5D5C5B",
"b 	c #BFBFBF",
"c 	c #353535",
"d 	c #725B52",
"e 	c #574441",
"f 	c #5C4B43",
"g 	c #A5A5A4",
"h 	c #9F9895",
"i 	c #9E928E",
"j 	c #918682",
"k 	c #655F5D",
"l 	c #DDDDDD",
"m 	c #795F56",
"n 	c #6D564F",
"o 	c #484746",
"p 	c #E5E4E4",
"q 	c #F4EBE3",
"r 	c #DDCDBA",
"s 	c #D9C9B4",
"t 	c #E0D0BE",
"u 	c #E7D8C9",
"v 	c #C1B5A8",
"w 	c #6D6A66",
"x 	c #A3988A",
"y 	c #D4C5B2",
"z 	c #E0CEBD",
"A 	c #E0DDDD",
"B 	c #E9DCD4",
"C 	c #D4C8B4",
"D 	c #D2C2AD",
"E 	c #CDBDA9",
"F 	c #CCCCCD",
"G 	c #747473",
"H 	c #575450",
"I 	c #9B9081",
"J 	c #BCAE9C",
"K 	c #3E3433",
"L 	c #6B594F",
"M 	c #36322F",
"N 	c #EFE3DB",
"O 	c #D0BFA9",
"P 	c #423F3C",
"Q 	c #988E83",
"R 	c #C6B7A3",
"S 	c #706054",
"T 	c #28201E",
"U 	c #C5BEB4",
"V 	c #342D2B",
"W 	c #5E574D",
"X 	c #938B7F",
"Y 	c #704B3C",
"Z 	c #372D25",
"` 	c #958A82",
" .	c #C4A294",
"..	c #A39583",
"+.	c #D8CDCC",
"@.	c #2E2B28",
"#.	c #645C52",
"$.	c #A99C8C",
"%.	c #ACA08F",
"&.	c #655246",
"*.	c #8D8374",
"=.	c #D0BEA6",
"-.	c #A44341",
";.	c #CB3E3E",
">.	c #BC6565",
",.	c #676057",
"'.	c #906959",
").	c #32251D",
"!.	c #CBBBA3",
"~.	c #BB9583",
"{.	c #A3413E",
"].	c #DE4040",
"^.	c #6F2424",
"/.	c #251712",
"(.	c #C8B7A1",
"_.	c #B4A693",
":.	c #69463B",
"<.	c #110C06",
"[.	c #2C0D0D",
"}.	c #6A4F45",
"|.	c #A08E7E",
"1.	c #C1A78D",
"2.	c #BEAD96",
"3.	c #C4AF99",
"4.	c #4E2222",
"5.	c #9F947F",
"6.	c #D1C1A6",
"7.	c #CFC1A7",
"8.	c #A89B86",
"9.	c #50372A",
"0.	c #8B6553",
"a.	c #855D48",
"b.	c #5C483D",
"c.	c #B39E87",
"d.	c #532826",
"e.	c #938572",
"f.	c #C6B093",
"g.	c #CAB89F",
"h.	c #C5B49C",
"i.	c #896C5F",
"j.	c #947365",
"k.	c #A98774",
"l.	c #BBA48B",
"m.	c #A5917E",
"n.	c #A57A6A",
"o.	c #A13E3C",
"p.	c #3C2F2A",
"q.	c #C9B396",
"r.	c #B28979",
"s.	c #532725",
"t.	c #C9B49A",
"u.	c #8C7D6B",
"v.	c #AD8976",
"w.	c #C6B89F",
"x.	c #8A7E71",
"y.	c #C38582",
"z.	c #E85A5A",
"A.	c #867B6C",
"B.	c #A24C4C",
"C.	c #C67676",
"D.	c #752525",
"E.	c #8E7C67",
"F.	c #C5AD93",
"G.	c #4E4A3D",
"H.	c #F25D5D",
"I.	c #A43434",
"J.	c #300E0E",
"K.	c #1B0707",
"L.	c #321211",
"M.	c #792424",
"N.	c #3C1515",
"O.	c #230B0B",
"P.	c #AF7171",
"Q.	c #6D322F",
"R.	c #C4AB8F",
"S.	c #983030",
"T.	c #7F2828",
"U.	c #5D2323",
"V.	c #9A8972",
"W.	c #9A886E",
"X.	c #98846C",
"Y.	c #998572",
"Z.	c #94826E",
"`.	c #431919",
" +	c #922F2F",
".+	c #E74444",
"++	c #100606",
"@+	c #962121",
"#+	c #4F1919",
"      . + @ # $ .           . . . . .                           ",
"      % & * = - . .       ; > , ' ) ! ~                         ",
"      { { ] ^ / . .       . ! ( _ : < [ } ! . .                 ",
"      | 1 2 3 . . .       . . . . . ) 4 5 6 7 ; ~ .             ",
"    ~ 8 9 1 0 .               . . . . ; a b 6 > a c ~ .         ",
"    d e f /     7 g h i i i i i i i i j k } _ ' l , k j i i i i ",
"  / m n | .   o p q r s r t t r t u s s v a 4 p p < w x y z r s ",
"  { & m !   ) A B C y y y D y y y C y s E g p F G g g H I J E y ",
"K ^ L M   K , N D D y y D y D y y O s O D p F a ( P g g 7 7 Q R ",
"e + S T   g q y D D D D D D y D y s s U p F a V W a o ' g 5 ' X ",
"- Y Z     ` z D y D D D D O D O O  ...+.F a @.#.$.%.c > 6 p p G ",
"m &.;     *.s D D D D D O =.O D  .-.;.>.a @.#.$.E R ,.} 4 g , - ",
"'.).    ! *.D s s D D O =.!.E ~.{.].;.^./.W ..(.=.(._.W } > M W ",
":.<.    / Q s u u s E O =.O ~.-.].;.^.[.8 *.(.O !.E E _.H c #...",
"}.<.    K |.1.2.3.O R 3.=.~.{.].;.^.[.4.&.5.!.6.=.!.7.E _.*.8.R ",
"&.9././ & 0.a.Y b.*.2.c.~.-.].;.^.[.d.f e.f.!.!.!.g.(.g.h.h.h.g.",
"& i.j.i.k.l.1.k.m.R 2.n.o.].;.^.[.d.f *.2.!.!.!.!.!.!.g.f.h.R !.",
"; V * p.| m.=.q.g.E r.o.].;.^.[.s.^ *.3.7.!.!.!.!.g.!.t.f.R g.g.",
"          u.6.g.q.v.o.].;.^.[.s.f *.J (.!.!.!.!.!.!.w.t.h.h.h.!.",
"          x.=.E ~.y.z.;.^.[.s.+ u.l.t.(.!.h.h.g.g.w.w.h.t.f.f.h.",
"          A.=.~.o.B.C.D.[.s.= E.l.F.F.h.(.(.t.t.!.h.h.f.f.f.f.h.",
"          G.v.y.H.I.J.K.s.b.E.1.q.h.q.q.t.q.q.q.q.q.q.q.f.F.f.q.",
"          L.I.-.C.M.N.s.b.E.1.q.q.t.q.q.q.t.q.q.q.q.q.q.f.F.f.q.",
"        O.P.H.I.J.O.Q.+ E.1.R.F.F.F.F.q.f.f.F.f.f.f.F.f.f.f.f.R.",
"      [.S.B.C.T.N.s.= u.l.R.R.R.R.F.F.F.F.F.F.F.F.f.F.1.F.F.F.1.",
"    O.P.H.I.[.O.U.] 9 u.V.V.W.W.X.X.X.Y.Y.Y.V.X.e.V.Y.X.e.Y.Z.Z.",
"  [.S.B.C.D.N.`.~ . ~ ; ; ; ; ; ; ; ; ; ; ; ; ; ; ; ; ; ; ; ; ; ",
"[. +.+I.L.K.^.++. . . . . . . . . . . . . . . . . . . . . . . . ",
"I.].;.D.[.L.++. . . . . . . . . . . . . . . . . . . . . . . . . ",
"@+T.#+[.[.. . . .   . . . . . . . . . . . . . . . . . . . . . . ",
"[.O.O.O.. . . .               . . . . . . . . . . . . . . . .   ",
". . . . . . .                                                   "};
